<svg xmlns="http://www.w3.org/2000/svg" viewBox="0 0 48 48" width="48px" height="48px"><path fill="#d6e5e5" d="M11.199,33.168c2.403,0.089,4.544,0.229,6.894,0.739c0.109,0.024,0.225,0.051,0.303,0.132 c0.102,0.106,0.107,0.268,0.107,0.415c-0.006,1.506-0.011,3.011-0.017,4.517c-0.001,0.221,0.03,0.492,0.235,0.575 c0.203,0.083,0.415-0.088,0.567-0.245c1.71-1.76,3.855-3.604,5.387-5.521c0.175-0.219,0.367-0.451,0.637-0.526 c0.206-0.057,0.426-0.012,0.636,0.03c1.992,0.397,4.043,0.494,6.063,0.287c0.547-0.056,1.103-0.137,1.599-0.374 c0.574-0.274,1.033-0.737,1.478-1.19c1.046-1.064,2.092-2.129,3.138-3.193c0.49-0.499,1.001-1.032,1.171-1.711 c0.094-0.375,0.077-0.768,0.06-1.154C39.208,20.2,38.913,15.329,39.21,9.584C35.554,9.958,31.55,9.57,27.88,9.393 c-5.29-0.256-10.881-0.088-16.176,0.016c0.537,4.553,0.398,8.37,0.164,12.948c-0.067,1.311-0.167,2.628-0.467,3.906 c-0.278,1.186-0.727,2.329-0.942,3.528S10.553,32.136,11.199,33.168z"/><path fill="#8a4581" d="M10.459,29.791c0.215-1.199,0.664-2.343,0.942-3.528c0.3-1.278,0.4-2.595,0.467-3.906 c0.234-4.579,0.373-8.395-0.164-12.948C16.999,9.305,22.59,9.137,27.88,9.393c3.67,0.177,7.674,0.565,11.33,0.191 c-0.297,5.745-0.002,10.616,0.249,16.364c0.017,0.386,0.034,0.779-0.06,1.154c-0.171,0.679-0.681,1.212-1.171,1.711 c-1.046,1.064-2.092,2.129-3.138,3.193c-0.446,0.454-0.904,0.916-1.478,1.19c-0.497,0.237-1.052,0.318-1.599,0.374 c-2.02,0.207-4.072,0.11-6.063-0.287c-0.21-0.042-0.429-0.087-0.636-0.03c-0.27,0.075-0.462,0.307-0.637,0.526 c-1.532,1.917-3.156,3.761-4.866,5.521c-0.153,0.157-0.364,0.328-0.567,0.245c-0.204-0.083-0.236-0.355-0.235-0.575 c0.006-1.506,0.011-3.011,0.017-4.517c0.001-0.147-0.005-0.309-0.107-0.415c-0.078-0.081-0.194-0.108-0.303-0.132 c-2.35-0.51-5.012-0.65-7.415-0.739C10.553,32.136,10.244,30.99,10.459,29.791z M14.231,38.748 c-0.096,1.806,0.072,3.966,0.324,5.757c2.391-0.155,3.385,0.402,5.66-0.348c1.013-0.334,4.291-3.58,5.082-4.756 c0.17-0.253,0.343-0.521,0.609-0.67c0.251-0.14,0.551-0.153,0.838-0.163c1.152-0.04,4.332-0.234,5.483-0.274 c0.371-0.013,0.753-0.028,1.093-0.177c0.308-0.135,0.56-0.369,0.805-0.6c3.434-3.246,6.356-4.62,9.436-8.203 c0.066-0.64,0.042-1.419,0.088-2.061c0.167-2.321,0.077-5.652-0.013-7.978c-0.052-1.334-0.103-1.667-0.155-3.001 c-0.138-3.576-0.027-7.12-0.166-10.696c0.007,0.191-0.063-1.073-0.255-1.078C31.959,4.26,20.63,3.805,9.564,4.743 C7.86,6.856,6.576,9.134,5.291,11.525c-0.195,0.362-0.386,0.731-0.483,1.131c-0.12,0.493-0.092,1.009-0.065,1.516 c0.458,8.45,0.11,14.92-0.187,23.377c-0.013,0.383,0.023,0.854,0.37,1.017c0.167,0.078,0.361,0.057,0.544,0.036 C8.347,38.268,11.353,38.412,14.231,38.748z"/><path fill="#010101" d="M18.835,40.07c-0.102,0-0.202-0.021-0.303-0.062c-0.25-0.102-0.549-0.364-0.546-1.04l0.017-4.517 c0-0.019,0-0.035,0-0.05c-2.268-0.488-4.284-0.641-6.822-0.734c-0.166-0.007-0.317-0.095-0.405-0.235 c-0.686-1.096-0.929-2.45-0.685-3.813c0.143-0.797,0.336-1.546,0.522-2.27c0.102-0.393,0.204-0.789,0.301-1.201 c0.275-1.173,0.381-2.374,0.454-3.817c0.223-4.362,0.25-8.006-0.302-12.69c-0.017-0.141,0.026-0.28,0.119-0.387 s0.227-0.169,0.367-0.172c1.472-0.028,2.978-0.076,4.498-0.124c3.94-0.122,8.016-0.25,11.854-0.065 c0.751,0.036,1.517,0.081,2.29,0.127c2.996,0.178,6.097,0.359,8.965,0.066c0.145-0.018,0.29,0.034,0.396,0.135 s0.162,0.242,0.154,0.388c-0.261,5.049-0.065,9.351,0.16,14.331l0.09,1.985c0.018,0.424,0.036,0.854-0.074,1.297 c-0.21,0.832-0.814,1.446-1.301,1.94l-3.138,3.193c-0.451,0.458-0.962,0.977-1.619,1.291c-0.59,0.28-1.22,0.364-1.764,0.42 c-2.079,0.215-4.168,0.114-6.213-0.294c-0.159-0.031-0.317-0.064-0.405-0.038c-0.121,0.033-0.271,0.22-0.379,0.356 c-1.037,1.299-2.34,2.553-3.599,3.767c-0.629,0.605-1.249,1.203-1.82,1.791C19.374,39.93,19.103,40.07,18.835,40.07z M11.493,32.679c2.493,0.099,4.509,0.264,6.707,0.74c0.129,0.027,0.372,0.079,0.559,0.275c0.247,0.257,0.245,0.599,0.244,0.763 l-0.017,4.438c0.563-0.576,1.171-1.162,1.787-1.757c1.236-1.19,2.515-2.423,3.512-3.671c0.183-0.229,0.459-0.574,0.893-0.695 c0.318-0.09,0.62-0.028,0.862,0.021c1.951,0.389,3.941,0.484,5.921,0.281c0.461-0.048,0.99-0.116,1.436-0.328 c0.498-0.238,0.925-0.672,1.337-1.09l3.138-3.193c0.511-0.519,0.911-0.957,1.043-1.482c0.076-0.302,0.062-0.643,0.046-1.003 l-0.09-1.991c-0.218-4.816-0.408-9.002-0.188-13.852c-2.779,0.225-5.708,0.052-8.548-0.115c-0.77-0.045-1.531-0.091-2.279-0.127 c-3.798-0.184-7.853-0.057-11.773,0.067c-1.336,0.042-2.66,0.083-3.961,0.112c0.496,4.494,0.463,8.068,0.245,12.312 c-0.075,1.497-0.186,2.75-0.479,3.995c-0.098,0.419-0.202,0.822-0.305,1.222c-0.19,0.739-0.371,1.437-0.507,2.196 C10.892,30.821,11.04,31.835,11.493,32.679z M18.081,34.42h0.01H18.081z"/><path fill="#010101" d="M17.79,45.06c-0.358,0-0.709-0.019-1.076-0.039c-0.632-0.035-1.285-0.07-2.126-0.017 c-0.258,0.022-0.49-0.17-0.527-0.429c-0.268-1.897-0.392-3.827-0.348-5.383c-3.125-0.339-5.807-0.37-8.186-0.094 c-0.206,0.021-0.516,0.061-0.814-0.081c-0.698-0.327-0.667-1.2-0.657-1.486l0.111-3.061c0.256-6.918,0.477-12.893,0.077-20.272 c-0.029-0.543-0.06-1.099,0.078-1.661c0.108-0.447,0.312-0.846,0.528-1.249C6.07,9.018,7.409,6.619,9.174,4.43 C9.26,4.323,9.385,4.257,9.521,4.245c9.641-0.818,19.568-0.58,29.174-0.347c1.462,0.035,2.922,0.07,4.378,0.102 c0.598,0.013,0.67,0.76,0.736,1.486c0.004,0.023,0.007,0.047,0.008,0.071c0,0.001,0,0.001,0,0.002l0,0l0,0 c0.069,1.797,0.076,3.61,0.083,5.364c0.007,1.746,0.014,3.551,0.083,5.33c0.025,0.667,0.051,1.082,0.076,1.499 c0.026,0.417,0.052,0.835,0.078,1.502c0.139,3.588,0.143,6.216,0.012,8.033c-0.02,0.274-0.026,0.575-0.033,0.879 c-0.009,0.41-0.019,0.826-0.057,1.196c-0.01,0.102-0.052,0.197-0.118,0.275c-1.837,2.137-3.595,3.484-5.456,4.911 c-1.283,0.983-2.61,2.001-4.016,3.329c-0.245,0.232-0.551,0.521-0.948,0.695c-0.434,0.189-0.9,0.206-1.275,0.219 c-0.574,0.02-1.655,0.078-2.734,0.137c-1.086,0.059-2.172,0.117-2.749,0.138c-0.217,0.007-0.461,0.016-0.613,0.1 c-0.149,0.084-0.278,0.276-0.415,0.48c-0.822,1.222-4.158,4.587-5.362,4.983C19.331,44.975,18.544,45.06,17.79,45.06z M15.452,43.976c0.489,0,0.92,0.024,1.316,0.046c1.082,0.06,1.933,0.106,3.291-0.34c0.816-0.27,4.028-3.378,4.823-4.561 c0.199-0.296,0.42-0.626,0.779-0.827c0.364-0.202,0.77-0.216,1.066-0.227c0.572-0.02,1.65-0.078,2.729-0.137 c1.088-0.059,2.176-0.117,2.754-0.138c0.32-0.011,0.651-0.022,0.91-0.135c0.237-0.104,0.462-0.317,0.661-0.506 c1.443-1.364,2.791-2.397,4.096-3.396c1.782-1.367,3.468-2.659,5.201-4.648c0.023-0.305,0.03-0.636,0.037-0.962 c0.008-0.321,0.015-0.639,0.035-0.93c0.128-1.779,0.124-4.371-0.014-7.922c-0.025-0.657-0.051-1.069-0.076-1.479 c-0.026-0.423-0.052-0.845-0.078-1.522c-0.069-1.796-0.076-3.61-0.083-5.364c-0.007-1.736-0.014-3.531-0.081-5.302 c-0.002-0.011-0.004-0.022-0.005-0.034c-0.026-0.29-0.053-0.479-0.075-0.599c-1.354-0.03-2.71-0.063-4.068-0.096 C29.168,4.668,19.342,4.431,9.819,5.224c-1.646,2.079-2.921,4.367-4.088,6.537c-0.191,0.357-0.356,0.68-0.438,1.014 c-0.102,0.419-0.077,0.878-0.051,1.364c0.402,7.432,0.181,13.427-0.076,20.369l-0.11,3.059c-0.017,0.47,0.081,0.546,0.082,0.546 c0.044,0.021,0.199,0.003,0.273-0.008c2.572-0.299,5.477-0.25,8.878,0.146c0.263,0.031,0.456,0.26,0.441,0.523 c-0.077,1.448,0.017,3.325,0.26,5.209C15.15,43.979,15.304,43.976,15.452,43.976z M43.051,5c0.001,0,0.001,0,0.002,0 C43.052,5,43.052,5,43.051,5z"/><path fill="#8a4581" d="M24.211,15.656c-1.3-0.117-2.546-0.025-3.851-0.071c-0.069,0.461,0.033,0.624-0.032,0.988 c-0.088,0.499,0.118,0.91,0.105,1.416c-0.073,2.766-0.146,4.847-0.218,7.613c1.142-0.015,2.285,0.009,3.426,0.072 c0.591-1.048,0.688-2.272,0.748-3.455c0.09-1.759,0.126-2.836,0.108-4.597C24.49,16.932,24.456,16.306,24.211,15.656z"/><path fill="#010101" d="M23.642,26.174c-0.009,0-0.019,0-0.027-0.001c-1.119-0.062-2.258-0.087-3.392-0.07 c-0.003,0-0.005,0-0.007,0c-0.134,0-0.262-0.054-0.355-0.148c-0.096-0.097-0.147-0.229-0.145-0.364 c0.036-1.386,0.073-2.599,0.109-3.812c0.036-1.211,0.072-2.421,0.108-3.802c0.005-0.185-0.027-0.353-0.057-0.519 c-0.05-0.282-0.106-0.603-0.04-0.973c0.021-0.117,0.016-0.2,0.008-0.326c-0.01-0.16-0.021-0.358,0.021-0.647 c0.037-0.252,0.253-0.425,0.512-0.427c0.516,0.02,1.021,0.015,1.522,0.012c0.764-0.007,1.551-0.012,2.355,0.062 c0.191,0.018,0.355,0.143,0.423,0.321c0.281,0.747,0.312,1.466,0.318,2.137c0.018,1.779-0.019,2.865-0.108,4.628 c-0.066,1.296-0.178,2.552-0.812,3.675C23.988,26.077,23.821,26.174,23.642,26.174z M20.867,25.099c0.828,0,1.657,0.02,2.478,0.06 c0.406-0.879,0.491-1.904,0.546-2.965c0.088-1.741,0.124-2.814,0.106-4.567c-0.005-0.505-0.022-1.001-0.158-1.497 c-0.642-0.041-1.271-0.04-1.932-0.032c-0.354,0.002-0.707,0.005-1.064,0c0,0.001,0,0.001,0,0.002 c0.009,0.152,0.02,0.326-0.021,0.561c-0.035,0.197,0,0.396,0.04,0.625c0.037,0.211,0.079,0.449,0.072,0.719 c-0.036,1.382-0.072,2.594-0.109,3.805c-0.031,1.06-0.063,2.118-0.095,3.291C20.775,25.099,20.821,25.099,20.867,25.099z"/><path fill="#8a4581" d="M33.286,15.737c-1.05-0.047-2.336,0.169-3.386,0.122c-0.097-0.004-0.207-0.004-0.273,0.067 c-0.058,0.063-0.06,0.157-0.059,0.242c0.054,3.327,0.108,5.654,0.162,8.981c0.002,0.102,0.005,0.21,0.064,0.293 c0.064,0.091,0.177,0.13,0.283,0.162c0.868,0.262,1.772,0.408,2.679,0.432c0.436-1.376,0.701-2.806,0.787-4.247 C33.687,19.353,33.084,18.169,33.286,15.737z"/><path fill="#010101" d="M32.756,26.536c-0.004,0-0.009,0-0.013,0c-0.949-0.024-1.895-0.177-2.812-0.453 c-0.125-0.038-0.381-0.116-0.548-0.354c-0.149-0.213-0.152-0.448-0.153-0.574c-0.026-1.616-0.053-2.998-0.079-4.375 c-0.027-1.451-0.056-2.896-0.083-4.604c-0.003-0.11-0.009-0.376,0.193-0.592c0.224-0.244,0.539-0.225,0.658-0.226 c0.496,0.026,1.076-0.019,1.637-0.06c0.588-0.042,1.197-0.089,1.751-0.061c0.136,0.006,0.264,0.066,0.353,0.169 c0.09,0.102,0.135,0.236,0.123,0.371c-0.1,1.203,0.005,2.079,0.115,3.007c0.106,0.889,0.216,1.809,0.143,3.033 c-0.087,1.479-0.359,2.949-0.809,4.369C33.167,26.396,32.974,26.536,32.756,26.536z M30.072,16.364 c0.026,1.639,0.053,3.015,0.079,4.396c0.026,1.377,0.053,2.76,0.079,4.381c0.7,0.2,1.428,0.33,2.16,0.378 c0.358-1.228,0.577-2.49,0.652-3.76c0.067-1.137-0.032-1.972-0.138-2.856c-0.095-0.803-0.193-1.629-0.151-2.67 c-0.363,0.008-0.749,0.036-1.126,0.063C31.108,16.333,30.569,16.37,30.072,16.364z"/></svg>