<svg xmlns="http://www.w3.org/2000/svg" viewBox="0 0 100 100" width="100px" height="100px"><path fill="#78a2d2" d="M69,82H31c-7.18,0-13-5.82-13-13V31c0-7.18,5.82-13,13-13h38c7.18,0,13,5.82,13,13v38	C82,76.18,76.18,82,69,82z"/><path fill="#1f212b" d="M66.5,78h-33C27.159,78,22,72.841,22,66.5v-33C22,27.159,27.159,22,33.5,22h33	c0.353,0,0.699,0.022,1.044,0.053c0.275,0.024,0.479,0.268,0.454,0.542c-0.025,0.276-0.284,0.466-0.542,0.454	C67.141,23.021,66.823,23,66.5,23h-33C27.71,23,23,27.71,23,33.5v33C23,72.29,27.71,77,33.5,77h33C72.29,77,77,72.29,77,66.5v-17	c0-0.276,0.224-0.5,0.5-0.5s0.5,0.224,0.5,0.5v17C78,72.841,72.841,78,66.5,78z"/><path fill="#1f212b" d="M77.5,40c-0.276,0-0.5-0.224-0.5-0.5v-2c0-0.276,0.224-0.5,0.5-0.5s0.5,0.224,0.5,0.5v2	C78,39.776,77.776,40,77.5,40z"/><path fill="#1f212b" d="M77.5,47c-0.276,0-0.5-0.224-0.5-0.5v-4c0-0.276,0.224-0.5,0.5-0.5s0.5,0.224,0.5,0.5v4	C78,46.776,77.776,47,77.5,47z"/><path fill="#1f212b" d="M69,83H31c-7.72,0-14-6.28-14-14V31c0-7.72,6.28-14,14-14h38c7.72,0,14,6.28,14,14v38	C83,76.72,76.72,83,69,83z M31,19c-6.617,0-12,5.383-12,12v38c0,6.617,5.383,12,12,12h38c6.617,0,12-5.383,12-12V31	c0-6.617-5.383-12-12-12H31z"/><path fill="#fff" d="M68.403,41.093c0.072-0.228,0.102-0.443,0.096-0.635c-0.024-0.557-0.41-0.958-1.313-0.958h-4.035	c-1.018,0-1.487,0.611-1.764,1.228c0,0-2.231,4.872-4.932,8.272c-0.147,0.185-1.205,1.5-2.955,1.5c-0.25,0-1-0.125-1-1.25v-8.193	c0-1.066-0.265-1.557-1.126-1.557H44.5c-0.626,0-1,0.509-1,1c0,1.024,2,1,1.997,3.848v5.558c0,1.348-0.235,1.593-0.747,1.593	c-1.367,0-4.193-4.333-5.999-10.365c-0.391-1.186-0.783-1.635-1.807-1.635h-4.071c-1.174,0-1.373,0.575-1.373,1.186	c0,1.108,0.927,7.086,5.974,13.956c3.661,4.983,8.485,7.858,12.755,7.858c1.272,0,2.272-0.625,2.272-2v-4.568	C52.5,55,53.175,54.5,54,54.5c1,0,1.973,0.717,4.286,3.4c2.668,3.097,3.15,4.6,4.679,4.6H67c0.939,0,1.475-0.389,1.499-1.15	c0.006-0.192-0.024-0.407-0.084-0.653c-0.301-0.88-1.507-3.037-3.217-5.097c-0.945-1.138-1.885-2.27-2.312-2.881	c-0.289-0.401-0.397-0.683-0.385-0.952c0.012-0.282,0.163-0.551,0.385-0.928C62.843,50.838,67.891,43.549,68.403,41.093z"/><path fill="none" stroke="#1f212b" stroke-linecap="round" stroke-miterlimit="10" d="M68.403,41.093	c0.072-0.228,0.102-0.443,0.096-0.635c-0.024-0.557-0.41-0.958-1.313-0.958h-4.035c-1.018,0-1.487,0.611-1.764,1.228	c0,0-2.231,4.872-4.932,8.272c-0.147,0.185-1.205,1.5-2.955,1.5c-0.25,0-1-0.125-1-1.25v-8.193c0-1.066-0.265-1.557-1.126-1.557	H44.5c-0.626,0-1,0.509-1,1c0,1.024,2,1,1.997,3.848v5.558c0,1.348-0.235,1.593-0.747,1.593c-1.367,0-4.193-4.333-5.999-10.365	c-0.391-1.186-0.783-1.635-1.807-1.635h-4.071c-1.174,0-1.373,0.575-1.373,1.186c0,1.108,0.927,7.086,5.974,13.956	c3.661,4.983,8.485,7.858,12.755,7.858c1.272,0,2.272-0.625,2.272-2v-4.568C52.5,55,53.175,54.5,54,54.5c1,0,1.973,0.717,4.286,3.4	c2.668,3.097,3.15,4.6,4.679,4.6H67c0.939,0,1.475-0.389,1.499-1.15c0.006-0.192-0.024-0.407-0.084-0.653	c-0.301-0.88-1.507-3.037-3.217-5.097c-0.945-1.138-1.885-2.27-2.312-2.881c-0.289-0.401-0.397-0.683-0.385-0.952	c0.012-0.282,0.163-0.551,0.385-0.928C62.843,50.838,67.891,43.549,68.403,41.093z"/></svg>