<svg xmlns="http://www.w3.org/2000/svg" viewBox="0 0 64 64" width="64px" height="64px"><path fill="#7bbeeb" d="M55.34,56.91c-0.97,0.77-2.09,1.36-3.32,1.71c-0.85,0.25-1.76,0.38-2.7,0.38H14.68	C9.33,59,5,54.67,5,49.32V15c0-0.68,0.07-1.34,0.19-1.98c0.07-0.33,0.15-0.66,0.25-0.98c0.38-1.21,0.98-2.32,1.75-3.28	C9.02,6.47,11.84,5,15,5h34c5.52,0,10,4.48,10,10v34.32C59,52.39,57.57,55.13,55.34,56.91z"/><path fill="#8d6c9f" d="M8,11V9c0-0.553-0.448-1-1-1S6,8.447,6,9v2c0,0.553,0.448,1,1,1S8,11.553,8,11z"/><path fill="#85cbf8" d="M52,10H40H23.442h-12c-1.657,0-3-1.343-3-3c0-0.552,0.448-1,1-1H24h15.442H54c0.552,0,1,0.448,1,1	C55,8.657,53.657,10,52,10z"/><path fill="#8d6c9f" d="M28,11V9c0-0.553-0.448-1-1-1s-1,0.447-1,1v2c0,0.553,0.448,1,1,1S28,11.553,28,11z"/><path fill="#8d6c9f" d="M33,11V9c0-0.553-0.448-1-1-1c-0.552,0-1,0.447-1,1v2c0,0.553,0.448,1,1,1C32.552,12,33,11.553,33,11	z"/><path fill="#8d6c9f" d="M18,11V9c0-0.553-0.448-1-1-1s-1,0.447-1,1v2c0,0.553,0.448,1,1,1S18,11.553,18,11z"/><path fill="#8d6c9f" d="M23,11V9c0-0.553-0.448-1-1-1c-0.552,0-1,0.447-1,1v2c0,0.553,0.448,1,1,1C22.552,12,23,11.553,23,11	z"/><path fill="#8d6c9f" d="M13,11V9c0-0.553-0.448-1-1-1c-0.552,0-1,0.447-1,1v2c0,0.553,0.448,1,1,1C12.552,12,13,11.553,13,11	z"/><path fill="#8d6c9f" d="M38,11V9c0-0.553-0.448-1-1-1s-1,0.447-1,1v2c0,0.553,0.448,1,1,1S38,11.553,38,11z"/><path fill="#8d6c9f" d="M43,11V9c0-0.553-0.448-1-1-1s-1,0.447-1,1v2c0,0.553,0.448,1,1,1S43,11.553,43,11z"/><path fill="#8d6c9f" d="M48,11V9c0-0.553-0.448-1-1-1s-1,0.447-1,1v2c0,0.553,0.448,1,1,1S48,11.553,48,11z"/><path fill="#8d6c9f" d="M53,11V9c0-0.553-0.448-1-1-1s-1,0.447-1,1v2c0,0.553,0.448,1,1,1S53,11.553,53,11z"/><path fill="#8d6c9f" d="M60,49V15c0-6.075-4.925-11-11-11H15C8.925,4,4,8.925,4,15v34c0,6.075,4.925,11,11,11h34	C55.075,60,60,55.075,60,49z M58,49c0,4.971-4.029,9-9,9H15c-4.971,0-9-4.029-9-9V15c0-4.971,4.029-9,9-9h34	c2.826,0,5.349,1.312,7,3.356V11c0,0.553,0.448,1,1,1c0.158,0,0.302-0.044,0.435-0.109C57.794,12.862,58,13.906,58,15V49z"/><path fill="#fff8ee" d="M40.964,42h-22.44c-2.479,0-4.488-1.919-4.488-4.286V22h22.44c2.479,0,4.488,1.919,4.488,4.286V42z"/><polygon fill="#fff8ee" points="50,42 41,36.286 41,27.714 50,22"/><path fill="#8d6c9f" d="M40.964,43H18.523C15.478,43,13,40.629,13,37.714V22c0-0.552,0.463-1,1.036-1h22.441	C39.522,21,42,23.371,42,26.286V42C42,42.552,41.537,43,40.964,43z M15.071,23v14.714c0,1.812,1.549,3.286,3.452,3.286h21.405	V26.286c0-1.812-1.549-3.286-3.452-3.286H15.071z"/><path fill="#8d6c9f" d="M50,43c-0.187,0-0.373-0.052-0.536-0.156l-9-5.714C40.175,36.946,40,36.628,40,36.286v-8.571	c0-0.342,0.175-0.661,0.464-0.844l9-5.714c0.308-0.195,0.698-0.208,1.018-0.032C50.802,21.299,51,21.635,51,22v20	c0,0.365-0.198,0.701-0.519,0.876C50.331,42.959,50.166,43,50,43z M42,35.736l7,4.445V23.819l-7,4.445V35.736z"/></svg>